<svg width="181" height="211" viewBox="0 0 181 211" fill="none" xmlns="http://www.w3.org/2000/svg">
<path d="M181 0H0V210.807H181V0Z" fill="white"/>
<path d="M158.055 161.652C150.265 150.174 135.808 143.798 122.049 145.576C121.739 145.614 121.429 145.653 121.158 145.692C119.84 143.334 118.096 141.247 116.08 139.508C110.189 134.523 102.476 132.436 94.9572 131.47C87.0893 130.466 79.1051 130.581 71.276 131.702C55.6178 133.944 40.5409 140.32 28.0995 150.097C26.5492 151.334 24.9988 152.609 23.526 153.962C23.2547 154.193 23.6423 154.618 23.9136 154.348C34.6884 144.61 47.8662 137.692 61.9353 134.137C69.0281 132.32 76.3533 131.393 83.6786 131.354C90.8101 131.316 98.1741 132.011 104.996 134.214C111.313 136.262 117.204 139.972 120.537 145.769C114.414 146.812 107.554 149.595 104.996 155.546C102.748 160.724 104.84 168.105 111.158 168.84C117.786 169.613 122.863 163.468 123.638 157.478C124.142 153.575 123.251 149.672 121.429 146.194C135.149 144.107 149.761 150.406 157.551 161.884C157.745 162.27 158.249 161.961 158.055 161.652ZM121.196 147.083C124.064 153.073 124.181 161.227 118.677 165.825C116.197 167.912 112.592 169.149 109.414 167.912C106.236 166.676 104.647 163.314 104.647 160.067C104.647 152.416 112.36 148.242 118.91 146.735C119.53 146.58 120.189 146.464 120.809 146.349C120.964 146.619 121.08 146.851 121.196 147.083Z" fill="#ECEFF8"/>
<path d="M39.9208 73.309C39.882 73.309 39.8045 73.309 39.7657 73.2703L28.7584 66.0824C28.6809 66.0438 28.6422 65.9278 28.6422 65.8506C28.6422 65.7346 28.7197 65.6573 28.7972 65.6187C29.2235 65.3868 39.4557 59.8993 40.6184 59.5515C40.6959 59.5128 40.8122 59.5515 40.8897 59.5901C40.9672 59.6288 41.006 59.7447 41.006 59.822L40.2308 73.0771C40.2308 73.1931 40.1533 73.2703 40.0758 73.309C39.9983 73.2703 39.9595 73.309 39.9208 73.309ZM29.4561 65.8506L39.6495 72.5361L40.3471 60.2084C38.6417 60.9813 32.8668 64.0343 29.4561 65.8506Z" fill="#ECEFF8"/>
<path d="M76.392 72.7297H66.5087C66.1599 72.7297 66.1599 73.3094 66.5087 73.3094H76.392C76.7796 73.3094 76.7796 72.7297 76.392 72.7297Z" fill="#DADEEB"/>
<path d="M76.392 80.3032H66.5087C66.1599 80.3032 66.1599 80.8829 66.5087 80.8829H76.392C76.7796 80.8829 76.7796 80.3032 76.392 80.3032Z" fill="#DADEEB"/>
<path d="M123.173 119.141H49.0289C48.8739 119.141 48.7576 119.025 48.7576 118.87V36.0547C48.7576 35.9001 48.8739 35.7842 49.0289 35.7842H123.173C123.328 35.7842 123.444 35.9001 123.444 36.0547V118.87C123.444 119.025 123.328 119.141 123.173 119.141ZM49.339 118.6H122.863V36.3252H49.339V118.6Z" fill="#0D0F44"/>
<path d="M93.4843 47.3021H59.1447V65.6196H93.4843V47.3021Z" fill="#DADEEB"/>
<path d="M93.5232 52.2871V65.6196H59.1835V56.5381C60.6176 56.8859 62.0516 57.6588 63.3694 58.6249C63.602 58.1998 63.8733 57.8133 64.2608 57.4269C64.2996 57.3882 64.3771 57.3496 64.4159 57.311C65.6174 55.456 67.5553 54.1421 69.842 53.9489C73.2527 53.6784 76.1208 55.9584 77.206 58.9727C78.2913 58.6635 79.3765 58.6635 80.4617 59.0113C82.6322 53.6784 88.2908 51.1278 93.5232 52.2871Z" fill="#ECEFF8"/>
<path d="M63.5244 75.2023C62.5942 76.2458 60.9276 76.0912 59.9974 75.0864C59.0672 74.0816 59.106 72.6904 60.1137 71.763C61.1214 70.8355 62.7105 70.6809 63.6407 71.6857C64.6097 72.6904 64.7647 73.8111 63.5244 75.2023Z" fill="#C0CFFF"/>
<path d="M63.5244 83.0089C62.5942 84.0523 60.9276 83.8978 59.9974 82.893C59.0672 81.8882 59.106 80.497 60.1137 79.5695C61.1214 78.6421 62.7105 78.4875 63.6407 79.4923C64.6097 80.497 64.7647 81.6177 63.5244 83.0089Z" fill="#C0CFFF"/>
<path d="M40.9672 42.7405C40.8122 42.7405 40.6959 42.6246 40.6959 42.47V28.7898C40.6959 28.6352 40.8122 28.5193 40.9672 28.5193H52.5171C52.6722 28.5193 52.7884 28.6352 52.7884 28.7898C52.7884 28.9444 52.6722 29.0603 52.5171 29.0603H41.2385V42.4314C41.2773 42.6246 41.1223 42.7405 40.9672 42.7405Z" fill="#0D0F44"/>
<path d="M53.1373 127.913H40.9672C40.8122 127.913 40.6959 127.797 40.6959 127.643V116.127C40.6959 115.972 40.8122 115.856 40.9672 115.856C41.1223 115.856 41.2385 115.972 41.2385 116.127V127.372H53.0985C53.2535 127.372 53.3698 127.488 53.3698 127.643C53.4473 127.759 53.2923 127.913 53.1373 127.913Z" fill="#0D0F44"/>
<path d="M130.886 127.913H118.522C118.367 127.913 118.251 127.797 118.251 127.643C118.251 127.488 118.367 127.372 118.522 127.372H130.615V116.127C130.615 115.972 130.731 115.856 130.886 115.856C131.041 115.856 131.157 115.972 131.157 116.127V127.643C131.157 127.759 131.041 127.913 130.886 127.913Z" fill="#0D0F44"/>
<path d="M112.786 35.3993L115.383 23.7286L102.903 26.2792L107.205 36.1336L112.786 35.3993Z" fill="#FF8F42"/>
<path d="M112.592 32.4229L116.817 25.6987L121.7 36.0941L113.445 36.9443L112.592 32.4229Z" fill="#FF8F42"/>
<path d="M109.104 34.8189L102.748 28.0175L98.3679 39.1858L108.716 39.379L109.104 34.8189Z" fill="#FF8F42"/>
<path d="M107.941 35.8618L99.6857 40.8083L109.298 47.4166L113.29 38.4124L107.941 35.8618Z" fill="#FF8F42"/>
<path d="M109.957 38.6053L110.887 47.4162L120.964 41.0012L115.576 34.8181L109.957 38.6053Z" fill="#FF8F42"/>
<path d="M105.073 40.8856L88.2521 101.017L101.934 93.2105L110.189 104.147L113.91 38.7601L105.073 40.8856Z" fill="#FF8F42"/>
<path d="M108.057 43.5921L115.305 39.7663L134.568 81.3866L125.15 76.8652L120.731 86.3718L108.057 43.5921Z" fill="#FF8F42"/>
<path d="M113.6 38.9917C111.778 41.0399 108.445 40.7307 106.585 38.7599C104.724 36.7503 104.802 34.0066 106.817 32.113C108.833 30.2194 111.972 29.9875 113.832 31.997C115.732 33.9679 116.08 36.2093 113.6 38.9917Z" fill="white"/>
<path d="M112.049 47.2247V58.1998C112.049 58.5476 112.631 58.5476 112.631 58.1998V47.2247C112.631 46.8769 112.049 46.8769 112.049 47.2247Z" fill="white"/>
<path d="M113.677 44.8278C112.98 43.2434 112.243 41.6976 111.546 40.1132C111.391 39.7654 110.887 40.0745 111.042 40.3837L113.173 45.0983C113.328 45.4461 113.832 45.1756 113.677 44.8278Z" fill="white"/>
<path d="M106.468 36.905L103.794 38.0257C103.445 38.1803 103.755 38.644 104.065 38.5281L106.74 37.4074C107.088 37.2528 106.817 36.7505 106.468 36.905Z" fill="white"/>
<path d="M110.732 26.7029C110.46 28.326 110.228 29.9877 109.957 31.6108C109.918 31.9586 110.46 32.1132 110.499 31.7654C110.771 30.1423 111.003 28.4806 111.274 26.8575C111.352 26.5097 110.809 26.3551 110.732 26.7029Z" fill="white"/>
<path d="M115.925 31.8826L113.832 33.9694C113.561 34.2399 113.987 34.6264 114.22 34.3559L116.313 32.2691C116.584 32.0372 116.197 31.6121 115.925 31.8826Z" fill="white"/>
<path d="M109.763 40.2282V43.2425C109.763 43.5903 110.344 43.5903 110.344 43.2425V40.2282C110.344 39.8417 109.763 39.8417 109.763 40.2282Z" fill="white"/>
<path d="M106.352 50.4694C105.112 56.1501 103.833 61.8309 102.593 67.5117C102.515 67.8595 103.058 68.0141 103.135 67.6663C104.375 61.9855 105.654 56.3047 106.895 50.6239C107.011 50.2761 106.43 50.1216 106.352 50.4694Z" fill="white"/>
<path d="M113.639 47.2621L105.654 44.2865C105.306 44.1706 105.151 44.7116 105.499 44.8275C108.174 45.8323 110.809 46.7984 113.484 47.8032C113.832 47.9191 113.987 47.3781 113.639 47.2621Z" fill="white"/>
<path d="M121.778 8.15476C120.886 11.3236 119.995 14.4538 119.103 17.6227C118.987 17.9705 119.568 18.1251 119.646 17.7773C120.537 14.6084 121.429 11.4782 122.32 8.30933C122.437 7.92289 121.894 7.76831 121.778 8.15476Z" fill="#FFD550"/>
<path d="M141.699 25.4661C139.413 26.7413 137.126 27.978 134.878 29.2532C134.568 29.4465 134.839 29.9102 135.149 29.7556C137.436 28.4803 139.723 27.2437 141.971 25.9684C142.281 25.7752 142.009 25.2728 141.699 25.4661Z" fill="#FFD550"/>
<path d="M91.3527 20.9447C90.19 19.824 89.066 18.6647 87.9033 17.544C87.632 17.2735 87.2444 17.6986 87.5157 17.9304C88.6784 19.0511 89.8024 20.2105 90.9652 21.3312C91.2365 21.6017 91.624 21.2152 91.3527 20.9447Z" fill="#FFD550"/>
<path d="M140.653 34.3931C139.374 34.5477 138.134 34.6636 136.855 34.8182C136.506 34.8568 136.506 35.4365 136.855 35.3978C138.134 35.2433 139.374 35.1273 140.653 34.9728C141.002 34.8955 141.002 34.3544 140.653 34.3931Z" fill="#FFD550"/>
<path d="M45.6957 161.497C44.843 162.077 31.4328 173.438 31.4328 173.438L53.0985 195.311C53.0985 195.311 57.672 192.181 55.0752 186.771C52.5171 181.36 54.4938 175.95 57.6332 171.699L45.6957 161.497Z" fill="#484848"/>
<path d="M75.0355 177.65C74.8417 178.654 73.679 196.16 73.679 196.16H104.53C104.53 196.16 105.461 190.48 99.8018 188.547C94.1432 186.615 91.6239 181.437 90.7712 176.22L75.0355 177.65Z" fill="#484848"/>
<path d="M90.1124 111.103L89.8023 111.064L84.1049 110.291L83.5235 110.214L78.8338 109.596L77.8261 109.441L77.2447 109.364L71.5473 108.591L70.9659 108.513L68.9893 108.243C69.6869 106.311 70.3458 104.224 70.9659 102.098C71.1597 101.441 71.3535 100.823 71.5473 100.166C71.7024 99.5865 71.8961 99.0069 72.0512 98.3885C73.7953 98.5431 75.5006 98.6977 77.2447 98.8136C77.4385 98.8136 77.6323 98.8523 77.8261 98.8523C79.7253 99.0069 81.6244 99.1228 83.5235 99.2774C83.7173 99.2774 83.9111 99.316 84.1049 99.316C86.0041 99.432 87.9032 99.5479 89.8023 99.7025C90.1512 106.04 90.1124 111.103 90.1124 111.103Z" fill="#23C2A8"/>
<path d="M95.8099 185.571L90.3838 184.953L89.8024 184.875L84.105 184.18L83.5236 184.102L77.8262 183.445L77.2448 183.368L74.1054 182.982L77.206 121.343L77.2448 120.918L77.8262 109.634V109.441L77.8649 108.243L78.0975 103.992L83.5236 107.2L84.105 107.547L89.8024 110.948L90.1124 111.141C90.1512 112.107 90.2675 113.537 90.345 115.276C91.5465 132.937 95.8099 185.571 95.8099 185.571Z" fill="#23C2A8"/>
<path d="M78.9889 108.243C78.9502 108.668 78.9114 109.132 78.8339 109.557C78.5626 112.301 78.2138 114.967 77.8262 117.595C77.6324 118.831 77.4774 120.029 77.2448 121.227C77.2448 121.266 77.2448 121.305 77.2061 121.382C75.7332 130.27 73.7178 138.27 71.5086 145.303C71.3148 145.921 71.121 146.501 70.9273 147.119C69.0669 152.877 67.0902 157.94 65.2298 162.229C65.036 162.655 64.8422 163.118 64.6485 163.543C62.4392 168.451 60.4238 172.277 58.951 174.905C58.7572 175.253 58.5634 175.601 58.3697 175.871C57.1294 177.997 56.393 179.079 56.393 179.079L52.6722 175.601L52.0908 175.06L46.4709 169.649L45.8896 169.108L41.0448 164.548C42.7889 162.964 44.378 161.341 45.8896 159.602C46.0834 159.37 46.2771 159.177 46.4709 158.945C48.4864 156.587 50.3467 153.96 52.1684 150.791C52.3622 150.482 52.556 150.134 52.7497 149.786C54.6101 146.462 56.4705 142.559 58.4472 137.845C58.641 137.381 58.8348 136.917 59.0285 136.453C60.8114 132.087 62.6718 127.024 64.726 121.073C64.9198 120.532 65.1136 119.952 65.3073 119.411C66.4701 115.972 67.7103 112.262 69.0281 108.243H78.9889Z" fill="#23C2A8"/>
<path d="M46.4709 158.945V169.65L45.8896 169.109V159.602C46.0834 159.409 46.2772 159.177 46.4709 158.945Z" fill="white"/>
<path d="M52.7496 149.786V175.523L52.1682 174.982V150.752C52.362 150.482 52.5558 150.134 52.7496 149.786Z" fill="white"/>
<path d="M59.0285 136.453V174.828C58.8347 175.175 58.6409 175.523 58.4471 175.794V137.806C58.6409 137.381 58.8347 136.917 59.0285 136.453Z" fill="white"/>
<path d="M65.2686 119.412V162.192C65.0748 162.617 64.881 163.081 64.6872 163.506V121.074C64.9197 120.533 65.1135 119.992 65.2686 119.412Z" fill="white"/>
<path d="M71.5473 100.167V145.266C71.3535 145.884 71.1597 146.464 70.9659 147.082V102.1C71.1597 101.443 71.3535 100.824 71.5473 100.167Z" fill="white"/>
<path d="M77.8261 98.8535V183.447L77.2447 183.369V98.8149C77.4385 98.8535 77.6323 98.8535 77.8261 98.8535Z" fill="white"/>
<path d="M84.1049 99.3178V184.181L83.5236 184.104V99.2791C83.7173 99.2791 83.9111 99.3178 84.1049 99.3178Z" fill="white"/>
<path d="M90.3837 115.277V184.953L89.8024 184.876V99.7032C90.1512 106.041 90.1124 111.142 90.1124 111.142C90.1899 112.108 90.2675 113.499 90.3837 115.277Z" fill="white"/>
<path d="M53.9512 178.191C53.0598 178.075 52.1684 177.96 51.2769 177.805C50.9281 177.766 50.7731 178.307 51.1219 178.346C52.0133 178.462 52.9048 178.578 53.7962 178.732C54.1838 178.771 54.3388 178.23 53.9512 178.191Z" fill="white"/>
<path d="M53.0597 180.897C52.1683 181.167 51.2769 181.399 50.3854 181.67C50.0366 181.786 50.1916 182.327 50.5405 182.211C51.4319 181.94 52.3233 181.708 53.2148 181.438C53.5636 181.361 53.4086 180.781 53.0597 180.897Z" fill="white"/>
<path d="M93.9494 186.113C93.1743 186.731 92.4379 187.388 91.6627 188.006C91.3914 188.238 91.779 188.625 92.0503 188.393C92.8254 187.774 93.5618 187.117 94.337 186.499C94.6471 186.306 94.2595 185.881 93.9494 186.113Z" fill="white"/>
<path d="M95.8487 187.658C95.0735 188.431 94.3371 189.165 93.5619 189.938C93.2906 190.209 93.717 190.595 93.9495 190.324C94.7247 189.552 95.4611 188.817 96.2362 188.044C96.5463 187.774 96.12 187.387 95.8487 187.658Z" fill="white"/>
<path d="M77.5935 110.098C77.3997 109.982 77.2059 109.866 77.0121 109.712C76.1207 109.132 75.2292 108.553 74.3378 107.973C74.0277 107.78 74.3378 107.277 74.6479 107.47C75.423 107.973 76.1982 108.475 76.9734 109.016C77.1672 109.132 77.3609 109.287 77.5547 109.403C77.5547 109.635 77.5547 109.866 77.5935 110.098Z" fill="white"/>
<path d="M92.3604 104.265C91.7402 94.2556 89.9574 76.9428 84.725 75.0105C81.7407 73.8898 78.0199 75.5516 76.1983 79.8411C74.1053 84.8263 72.1287 91.7437 69.6869 98.3906C69.4931 98.9316 69.2994 99.434 69.1056 99.975C76.9734 101.714 84.9576 103.144 92.3604 104.265Z" fill="#545454"/>
<path d="M77.8261 84.9402C68.718 55.9567 73.2527 41.4649 80.1128 33.7746C86.973 26.0843 103.29 23.6497 103.406 24.6931C103.484 25.7365 99.2205 26.664 99.2205 26.664C99.2205 26.664 103.678 25.1568 103.794 26.2775C103.872 27.3982 99.5306 28.8281 99.5306 28.8281C99.5306 28.8281 103.794 26.548 104.104 28.2484C104.375 29.9488 99.3368 31.4559 99.3368 31.4559C99.3368 31.4559 103.988 28.9826 104.182 30.3352C104.375 31.6491 97.6702 34.6634 97.6702 34.6634C97.6702 34.6634 102.011 34.818 102.089 36.5956C102.166 38.4119 93.6394 35.9387 91.8178 37.2526C89.9961 38.5665 77.4773 48.0732 80.3066 64.2653C83.1747 80.4574 84.1049 81.0371 83.9111 81.3076C83.7173 81.5781 77.8261 84.9402 77.8261 84.9402Z" fill="#F7E4D8"/>
<path d="M71.2761 69.4049C72.9814 75.4721 75.8495 78.641 77.8262 84.9401C77.8262 84.9401 83.7174 81.6166 83.9112 81.3461C84.105 81.0756 83.2135 80.5346 80.6168 66.1201C78.3688 66.8544 73.6015 68.9798 71.2761 69.4049Z" fill="#545454"/>
<path d="M103.833 26.1614C102.941 25.5431 101.895 25.8909 100.887 26.1614C99.4531 26.5478 98.0578 27.0502 96.6625 27.6299C96.3137 27.7845 96.6238 28.2482 96.9338 28.1323C97.9415 27.7072 98.988 27.3207 100.073 27.0116C101.042 26.7411 102.593 26.0841 103.523 26.7024C103.872 26.857 104.143 26.3933 103.833 26.1614Z" fill="#E4C2AA"/>
<path d="M104.104 28.0944C103.406 27.4761 102.67 27.592 101.856 27.9398C100.306 28.5581 98.8329 29.447 97.3214 30.2199C97.0113 30.3744 97.2826 30.8768 97.5927 30.7222C98.4066 30.2971 99.2593 29.8721 100.073 29.4856C100.926 29.0605 102.747 27.7466 103.678 28.5581C103.988 28.7514 104.375 28.3263 104.104 28.0944Z" fill="#E4C2AA"/>
<path d="M104.337 30.3367C103.91 29.332 102.825 29.7957 102.05 30.1049C100.655 30.6845 99.2981 31.3415 98.0191 32.1144C97.7091 32.3076 97.9804 32.81 98.2904 32.6168C98.9493 32.2303 103.329 29.5252 103.833 30.6459C103.988 30.955 104.492 30.6459 104.337 30.3367Z" fill="#E4C2AA"/>
<path d="M103.213 24.6172C102.36 24.0375 101.43 24.2307 100.461 24.4239C98.8717 24.7331 97.2439 25.0809 95.6548 25.39C95.306 25.4673 95.461 26.0083 95.8098 25.931C96.895 25.6992 98.019 25.4673 99.1043 25.2741C100.267 25.0423 101.856 24.4239 102.941 25.1195C103.251 25.2741 103.523 24.8104 103.213 24.6172Z" fill="#E4C2AA"/>
<path d="M102.089 36.327C100.926 37.2158 98.6004 36.7134 97.2439 36.6361C95.6548 36.5975 94.0657 36.5202 92.4766 36.4816C92.1278 36.4816 92.1278 37.0226 92.4766 37.0612C94.4533 37.1385 96.3912 37.1772 98.3679 37.2544C99.6469 37.2931 101.275 37.6409 102.36 36.8294C102.67 36.5975 102.36 36.0951 102.089 36.327Z" fill="#E4C2AA"/>
<path d="M122.785 24.0374C121.7 24.3079 123.289 27.0517 124.219 28.5588C123.328 27.2449 121.235 24.3079 120.77 25.274C120.305 26.2015 122.126 30.0273 122.785 31.3026C122.126 30.1046 119.879 26.2401 118.6 26.7039C117.824 27.013 118.328 28.4815 119.026 29.8727C118.483 29.1771 117.902 28.6747 117.437 28.9839C116.429 29.6408 119.103 35.6308 119.762 37.022C119.297 36.0559 117.747 33.1189 116.274 33.8918C114.569 34.8579 122.747 45.6397 120.847 57.3877C119.53 65.4258 109.879 73.3866 99.298 78.024C99.4531 81.1155 99.3756 84.1685 99.2593 87.26C119.026 83.8207 132.01 66.7397 133.948 55.1077C136.273 41.4661 124.297 23.6509 122.785 24.0374Z" fill="#F7E4D8"/>
<path d="M101.779 76.8651C96.1975 79.6475 90.19 81.5025 84.9576 82.0049C84.9576 82.0049 68.0204 90.6999 85.8491 92.2843C91.8566 92.8254 97.4377 92.0525 102.438 90.4294L101.779 76.8651Z" fill="#545454"/>
<path d="M89.7249 91.975L88.6009 91.7818C88.2521 91.7045 88.097 92.2842 88.4459 92.3228C88.8334 92.4001 89.221 92.4388 89.5698 92.5161C89.9187 92.5547 90.0737 92.0137 89.7249 91.975Z" fill="white"/>
<path d="M121.196 39.3012C120.538 37.7554 119.879 36.2096 119.259 34.6639C118.716 33.3886 116.817 30.4129 117.902 29.1377C118.135 28.8672 117.747 28.4421 117.514 28.7512C116.468 30.0265 117.282 31.4563 117.863 32.8089C118.793 35.0503 119.762 37.253 120.693 39.4944C120.77 39.7649 121.313 39.6103 121.196 39.3012Z" fill="#E4C2AA"/>
<path d="M122.592 35.6306C121.894 34.3553 121.196 33.0414 120.499 31.7661C119.995 30.8386 117.824 27.9403 118.91 27.0128C119.181 26.7809 118.793 26.3945 118.522 26.6264C117.476 27.4766 118.173 28.7132 118.716 29.6793C119.84 31.7661 120.964 33.8916 122.127 35.9784C122.243 36.2102 122.747 35.9397 122.592 35.6306Z" fill="#E4C2AA"/>
<path d="M124.297 33.2336C123.677 32.0356 123.095 30.8377 122.475 29.6783C122.01 28.7509 120.189 26.3162 121.08 25.3501C121.313 25.0796 120.925 24.6931 120.692 24.9636C119.84 25.8911 120.382 26.8572 120.886 27.862C121.855 29.7556 122.824 31.6492 123.793 33.5814C123.948 33.8519 124.452 33.5814 124.297 33.2336Z" fill="#E4C2AA"/>
<path d="M126.002 31.8039C125.46 30.6833 124.917 29.6012 124.375 28.4805C124.103 27.9395 122.204 24.6933 123.173 24.4228C123.522 24.3455 123.367 23.7659 123.018 23.8818C121.816 24.1909 122.204 25.3116 122.592 26.1618C123.522 28.1327 124.53 30.1036 125.537 32.0745C125.692 32.4223 126.157 32.1518 126.002 31.8039Z" fill="#E4C2AA"/>
<path d="M119.53 43.2424C119.103 42.0057 118.6 40.7691 118.057 39.5325C117.476 38.2186 115.15 34.8951 117.282 34.0836C117.631 33.9677 117.476 33.388 117.127 33.5426C114.142 34.7019 117.127 38.8369 117.863 40.5372C119.491 44.3631 120.537 48.4208 121.119 52.5171C121.158 52.8649 121.7 52.7103 121.661 52.3625C121.235 49.2323 120.537 46.1794 119.53 43.2424Z" fill="#E4C2AA"/>
<path d="M83.9112 71.3767C83.6786 71.5699 81.1594 80.5742 81.1594 80.5742C81.1594 80.5742 85.7328 82.9701 85.7328 82.661C85.7328 82.3518 89.2598 70.3333 89.2598 70.3333L83.9112 71.3767Z" fill="#F3ABAA"/>
<path d="M79.2989 65.5026C82.1283 59.3581 92.903 63.8409 89.4923 71.338C86.663 77.5598 75.8107 73.1929 79.2989 65.5026Z" fill="#F3ABAA"/>
<path d="M79.2989 65.5033C80.4616 62.9528 83.0972 60.4022 84.7638 61.4456C86.1203 62.2185 84.2599 65.9671 83.9499 67.3583C83.0972 67.7061 82.0895 68.2085 81.9732 69.2132C81.8182 70.5272 82.9034 71.4546 84.2212 71.7251C84.57 72.614 84.2212 74.0825 84.1824 74.237C80.6167 73.8892 77.0897 70.3726 79.2989 65.5033Z" fill="#666666"/>
<path d="M87.1669 64.0348L89.4148 66.2762L90.4226 64.3053L87.1669 64.0348Z" fill="#D1AEAE"/>
<path d="M86.0816 64.1878L86.3916 64.4583C86.6629 64.6902 87.0117 64.2265 86.7404 63.9946L86.4304 63.7241C86.1203 63.4922 85.8103 63.956 86.0816 64.1878Z" fill="#0D0F44"/>
<path d="M83.5235 69.3295C83.8336 69.4068 84.1436 69.4841 84.4537 69.5614C84.8025 69.6387 84.725 70.2184 84.3762 70.1411C84.0661 70.0638 83.7561 69.9865 83.446 69.9092C83.0972 69.7933 83.1747 69.2523 83.5235 69.3295Z" fill="#D1AEAE"/>
<path d="M78.9114 67.7059C78.2525 70.9134 81.2368 71.6863 78.7176 74.121C76.1983 76.5942 75.5006 79.338 77.8649 80.4973C80.2291 81.6567 78.2137 82.816 82.0508 84.1299C84.4537 84.9415 95.8486 81.6567 84.2987 71.725L81.2368 71.6477L78.9114 67.7059Z" fill="#666666"/>
</svg>
