<svg width="159" height="184" viewBox="0 0 159 184" fill="none" xmlns="http://www.w3.org/2000/svg">
<path d="M159 0H0V183.832H159V0Z" fill="white"/>
<path d="M129.539 151.177C124.522 152.322 119.403 150.873 115.199 148.076C110.893 145.178 107.808 140.932 105.672 136.281C100.994 126.205 100.587 114.882 96.6884 104.536C89.8402 86.406 71.6688 75.5884 53.1244 72.5891C40.5129 70.5671 27.6302 71.6455 15.1543 73.9371C14.8492 74.0045 14.9848 74.4426 15.2899 74.3752C36.6142 70.4661 60.176 70.2976 78.7543 83.0023C86.8568 88.5291 93.2304 96.2126 96.5528 105.446C100.214 115.59 100.723 126.643 105.299 136.517C107.537 141.336 110.758 145.717 115.301 148.649C119.538 151.413 124.691 152.761 129.709 151.615C129.946 151.547 129.811 151.109 129.539 151.177Z" fill="#C0CFFF"/>
<path d="M127.709 141.505C126.861 141.505 126.013 141.336 125.234 140.999C124.929 140.864 124.59 140.696 124.318 140.527C123.2 139.853 122.318 138.842 121.742 137.663C120.148 134.327 121.403 130.721 124.657 129.07C126.42 128.193 128.421 128.059 130.183 128.665C131.743 129.204 132.963 130.283 133.675 131.732L133.709 131.799C135.336 135.237 134.048 139.045 130.624 140.831C130.489 140.898 130.353 140.966 130.217 140.999C129.37 141.336 128.556 141.505 127.709 141.505ZM127.946 128.766C126.895 128.766 125.844 129.002 124.861 129.508C121.776 131.024 120.657 134.327 122.149 137.494C122.691 138.607 123.505 139.55 124.556 140.19C124.827 140.359 125.098 140.494 125.403 140.629C126.895 141.235 128.522 141.235 130.014 140.629C130.15 140.561 130.251 140.527 130.387 140.46C133.574 138.809 134.794 135.237 133.268 132.035L133.235 132.001C132.59 130.653 131.472 129.676 130.014 129.171C129.37 128.867 128.658 128.766 127.946 128.766Z" fill="#F7B2B2"/>
<path d="M24.2398 75.8248C24.172 75.8585 24.1042 75.8922 24.0025 75.9259C23.0871 76.2966 22.104 76.2629 21.2564 75.9259C21.0869 75.8585 20.9174 75.7574 20.7479 75.6563C20.1377 75.2856 19.6631 74.7464 19.324 74.0724C18.4426 72.2189 19.1206 70.2306 20.9513 69.3544C22.782 68.4446 25.0196 68.9838 25.9349 70.8035C25.9349 70.8035 25.9349 70.8035 25.9349 70.8372C26.8164 72.6907 26.2061 74.8138 24.2398 75.8248Z" fill="#F7B2B2"/>
<path d="M121.335 16.5455H32.1052V112.017H121.335V16.5455Z" fill="#FEF7F2"/>
<path d="M111.741 65.8485C113.436 60.0521 110.249 53.1437 104.452 51.0206C98.4512 48.8302 91.3657 52.3686 89.0604 58.1313C87.5009 52.0653 85.738 45.7298 81.229 41.1466C77.2625 37.069 71.4992 34.9796 65.9732 37.0353C60.6167 39.0236 56.718 43.91 54.0736 48.7628C50.7512 54.8287 48.5476 61.6023 47.3271 68.4097C46.1745 74.8463 45.971 81.4177 46.683 87.9217C44.3098 82.6983 38.6482 78.9913 32.7494 79.6316C32.5459 79.6653 32.3086 79.699 32.1052 79.7327V112.017H121.335V61.4001C117.809 62.0741 114.487 63.4221 111.741 65.8485Z" fill="#F7E4D8"/>
<path d="M105.062 41.956C105.401 33.9354 108.418 31.6102 112.487 31.6102C116.385 31.6102 119.199 36.4292 119.504 41.956H105.062Z" fill="white"/>
<path d="M83.7039 41.9558C83.7039 41.5177 83.7039 41.0459 83.7039 40.5741C84.2124 24.432 90.1453 19.7477 98.1122 19.7477C106.079 19.7477 111.741 30.1609 111.741 41.6525C111.741 41.7536 111.741 41.821 111.741 41.9221H83.7039V41.9558Z" fill="white"/>
<path d="M75.3979 41.9556C75.364 41.4501 75.364 40.9109 75.364 40.3717C75.7369 29.1497 79.839 25.8809 85.3651 25.8809C90.8911 25.8809 94.8576 33.1263 94.8576 41.1131C94.8576 41.3827 94.8576 41.6523 94.8237 41.9219H75.3979V41.9556Z" fill="white"/>
<path d="M71.533 41.9551C72.3467 37.4731 73.7706 35.9229 75.4318 35.9229C76.8217 35.9229 78.0083 38.3156 78.788 41.9551H71.533Z" fill="white"/>
<path d="M107.673 33.498C107.164 34.2057 106.656 34.9134 106.147 35.6211C105.977 35.857 106.384 36.0929 106.554 35.857C107.062 35.1493 107.571 34.4416 108.079 33.7339C108.249 33.498 107.842 33.2621 107.673 33.498Z" fill="#DADEEB"/>
<path d="M91.942 27.9032C90.8232 27.2966 89.7383 26.6563 88.6196 26.0497C88.3484 25.9149 88.145 26.2856 88.3823 26.4541C89.501 27.0607 90.5859 27.701 91.7047 28.3076C91.9759 28.4424 92.2132 28.0717 91.942 27.9032Z" fill="#DADEEB"/>
<path d="M57.6671 62.984C57.8705 58.5019 59.5656 57.1539 61.837 57.1539C64.0067 57.1539 65.6001 59.8499 65.7696 62.984H57.6671Z" fill="white"/>
<path d="M45.6659 62.9853C45.6659 62.7157 45.6659 62.4799 45.6659 62.2103C45.971 53.1451 49.2934 50.5165 53.7346 50.5165C58.2096 50.5165 61.3964 56.3465 61.3964 62.8168C61.3964 62.8842 61.3964 62.9179 61.3964 62.9853H45.6659Z" fill="white"/>
<path d="M41.0214 62.9849C41.0214 62.6816 40.9875 62.412 41.0214 62.1087C41.2248 55.8068 43.5301 53.9871 46.6491 53.9871C49.7681 53.9871 51.9717 58.0647 51.9717 62.5468C51.9717 62.7153 51.9717 62.8501 51.9717 63.0186H41.0214V62.9849Z" fill="white"/>
<path d="M57.9045 58.6035C57.4977 58.9068 57.0908 59.2101 56.684 59.5134C56.4467 59.6819 56.684 60.0863 56.9213 59.9178C57.3282 59.6145 57.735 59.3112 58.1418 59.0079C58.3452 58.8394 58.1418 58.435 57.9045 58.6035Z" fill="#DADEEB"/>
<path d="M122.488 29.2177H38.8177C38.5126 29.2177 38.5126 29.6557 38.8177 29.6557H122.488C122.759 29.6894 122.759 29.2177 122.488 29.2177Z" fill="#0D0F44"/>
<path d="M122.488 103.222H38.8177C38.5126 103.222 38.5126 103.66 38.8177 103.66H122.488C122.759 103.693 122.759 103.222 122.488 103.222Z" fill="#0D0F44"/>
<path d="M43.0215 108.951V25.7125C43.0215 25.4092 42.5808 25.4092 42.5808 25.7125V108.951C42.5808 109.22 43.0215 109.22 43.0215 108.951Z" fill="#0D0F44"/>
<path d="M117.64 108.951V25.7125C117.64 25.4092 117.199 25.4092 117.199 25.7125V108.951C117.165 109.22 117.64 109.22 117.64 108.951Z" fill="#0D0F44"/>
<path d="M117.131 103.02C103.164 89.1361 68.9566 55.1332 54.989 41.2489C51.0224 37.3061 47.0559 33.3632 43.0894 29.4203C42.886 29.2181 42.547 29.5214 42.7504 29.7573C56.8875 43.8101 71.0585 57.8966 85.1956 71.9493C89.0604 75.7911 113.165 99.7515 117.029 103.593C117.029 103.391 117.063 103.189 117.131 103.02Z" fill="#0D0F44"/>
<path d="M140.354 31.9816H126.183V34.1047H140.354V31.9816Z" fill="#ECEFF8"/>
<path d="M140.354 37.6081H126.183V39.7312H140.354V37.6081Z" fill="#ECEFF8"/>
<path d="M135.913 43.6413H126.183V45.7644H135.913V43.6413Z" fill="#ECEFF8"/>
<path d="M65.5325 70.8033C53.1922 69.6576 48.751 49.8085 49.7681 39.4627C50.2766 34.4414 51.4971 34.1381 50.5817 33.6664C49.6664 33.2283 48.412 37.07 48.412 37.07C48.412 37.07 44.4116 30.1953 43.4962 30.7345C42.7843 31.1726 44.0047 33.5653 44.5811 34.5762C43.9369 33.4979 42.3097 30.9367 41.7672 31.7455C41.157 32.6217 42.6487 35.1491 43.0555 35.7894C42.6148 35.0817 40.7841 32.3184 40.1738 33.2283C39.6653 33.9696 40.818 35.7894 41.4621 36.733C40.7163 35.7557 39.2246 33.9359 38.8178 34.711C38.2414 35.722 42.2079 43.7088 42.7165 48.4605C43.5301 56.1777 45.9372 71.7806 63.1593 75.9594C63.634 74.8136 64.8883 71.848 65.5325 70.8033Z" fill="#F7E4D8"/>
<path d="M50.8528 52.773C48.9204 55.3342 46.1743 62.4448 44.4453 65.1745C47.0219 71.5774 52.7174 76.5312 62.7863 78.9576C63.2948 77.8455 64.8882 71.8133 65.5323 70.7686C57.5654 70.0946 52.8869 61.5349 50.8528 52.773Z" fill="#545454"/>
<path d="M45.3947 35.0137C45.0218 34.306 43.0554 31.5764 43.8691 30.9361C44.1064 30.7676 43.7674 30.4306 43.5301 30.5991C43.0215 31.0035 43.0555 31.6101 43.3267 32.183C43.8013 33.2277 44.4454 34.2386 44.9879 35.2496C45.1574 35.4855 45.5642 35.2496 45.3947 35.0137Z" fill="#D79F9E"/>
<path d="M43.7674 36.4303C43.3606 35.5878 41.4621 32.7233 42.2418 31.9482C42.4452 31.746 42.1401 31.409 41.9028 31.6112C41.3943 32.1167 41.4621 32.6896 41.6994 33.2962C42.1401 34.442 42.8182 35.5541 43.3606 36.6325C43.4962 36.9358 43.903 36.6999 43.7674 36.4303Z" fill="#D79F9E"/>
<path d="M42.4791 37.5752C41.8011 36.699 40.0043 34.4411 40.7501 33.3291C40.9196 33.0932 40.5128 32.8573 40.3433 33.0932C39.9365 33.6998 40.106 34.3063 40.3772 34.9466C40.8179 35.9576 41.3942 36.9012 42.0723 37.7774C42.2418 38.0133 42.6486 37.8111 42.4791 37.5752Z" fill="#D79F9E"/>
<path d="M40.784 40.0352C40.5806 39.4286 38.716 35.3509 39.3262 34.9802C39.5974 34.8454 39.3601 34.441 39.0889 34.5758C38.4109 34.9465 38.6821 35.5531 38.8855 36.1597C39.3601 37.474 39.8348 38.822 40.3094 40.1363C40.4111 40.4396 40.8518 40.3048 40.784 40.0352Z" fill="#D79F9E"/>
<path d="M67.4309 71.274C62.3795 70.8696 59.6334 85.192 56.8535 94.2572C56.1076 97.8967 55.7008 100.492 55.7008 100.492L72.7535 100.357C72.7535 100.323 73.0586 71.7121 67.4309 71.274Z" fill="#545454"/>
<path d="M118.555 95.1673C118.453 94.4596 115.843 94.9651 114.555 95.2684C115.877 94.9314 118.657 94.1226 118.555 93.3138C118.453 92.5724 115.775 93.0105 114.148 93.3138C115.775 92.9431 118.487 92.168 118.284 91.3255C118.013 90.146 108.147 92.3702 108.147 92.3702C108.147 92.3702 113.097 90.7863 112.012 89.7079C110.961 88.6633 105.74 93.8193 91.8743 91.5614C89.8062 91.2244 87.9755 90.6178 86.2804 89.8427C85.6363 92.4376 84.8566 94.9988 84.0429 97.5263C93.5694 102.514 103.604 101.166 107.028 100.863C111.775 100.424 118.318 98.4698 118.453 97.2567C118.589 96.1109 114.148 97.0545 113.809 97.1219C114.08 97.0882 118.691 96.0772 118.555 95.1673Z" fill="#FFF3EB"/>
<path d="M86.8568 90.1469C79.161 86.8443 72.5841 74.3418 69.838 72.859C68.5158 74.6788 69.7363 76.1279 68.7871 78.1835C69.8041 80.6773 69.2278 87.4172 71.7026 90.922C75.1945 95.8421 79.3644 99.0099 83.5344 100.998C84.1446 98.3359 86.2126 92.7755 86.8568 90.1469Z" fill="#545454"/>
<path d="M72.3128 89.6069C71.4314 86.9783 70.5838 84.3161 69.7024 81.6875C69.6007 81.4179 69.16 81.519 69.2617 81.8223C70.1431 84.4509 70.9907 87.1131 71.8721 89.7417C71.9738 90.0113 72.4145 89.8765 72.3128 89.6069Z" fill="white"/>
<path d="M117.979 91.1235C117.741 91.9323 116.724 92.1008 116.012 92.3367C115.3 92.5726 114.555 92.8085 113.843 93.0107C113.571 93.1118 113.673 93.5499 113.978 93.4488C115.063 93.1118 116.182 92.8422 117.233 92.4041C117.809 92.1682 118.284 91.8312 118.453 91.2246C118.521 90.955 118.08 90.8202 117.979 91.1235Z" fill="#C8A6A6"/>
<path d="M118.216 93.0783C118.047 93.9545 116.894 94.1567 116.182 94.4263C115.47 94.6959 114.758 94.9655 114.046 95.2014C113.775 95.3025 113.877 95.7405 114.182 95.6395C115.267 95.2351 116.385 94.8644 117.436 94.4263C118.013 94.1904 118.555 93.8534 118.657 93.1794C118.691 92.9098 118.25 92.775 118.216 93.0783Z" fill="#C8A6A6"/>
<path d="M118.114 95.0664C118.114 96.1111 114.961 96.6503 114.148 96.8188C113.877 96.8862 113.978 97.3243 114.283 97.2569C115.368 97.021 116.453 96.7177 117.47 96.2796C118.047 96.0437 118.589 95.7404 118.589 95.0664C118.555 94.7968 118.114 94.7968 118.114 95.0664Z" fill="#C8A6A6"/>
<path d="M118.352 97.0555C118.284 96.7859 117.843 96.887 117.911 97.1903C118.047 97.8643 114.419 99.0101 113.877 99.2123C113.605 99.3134 113.741 99.7515 114.012 99.6504C115.199 99.1786 116.385 98.7068 117.572 98.2013C118.08 97.9654 118.487 97.6958 118.352 97.0555Z" fill="#C8A6A6"/>
<path d="M59.7012 154.918C59.7351 151.817 60.0742 147.369 60.7861 140.932C57.1586 140.966 53.4972 140.966 49.8697 140.831C49.2256 145.718 48.6153 150.402 48.0729 154.446C51.9377 155.019 55.8364 154.85 59.7012 154.918Z" fill="#F7E4D8"/>
<path d="M77.3303 154.479C79.3644 154.513 81.3985 154.412 83.4326 154.311C84.5853 154.243 85.7719 154.142 86.9245 154.041C85.9075 151.278 84.8565 147.672 83.7038 143.156C80.0763 143.594 76.4149 144.133 72.7874 143.864C73.6011 147.672 74.3469 151.244 74.9911 154.412C75.7369 154.445 76.5166 154.479 77.3303 154.479Z" fill="#F7E4D8"/>
<path d="M56.684 94.7289C53.6329 104.569 48.3781 129.372 46.1066 144.739L63.7695 145.042C63.8712 143.054 64.5832 109.085 64.8883 95.9084C62.1422 95.5377 59.4301 95.0996 56.684 94.7289Z" fill="#23C2A8"/>
<path d="M65.5324 167.959H46.344C46.344 167.959 47.0898 162.163 48.1747 153.873C48.2086 153.738 48.2086 153.57 48.2425 153.435C48.3103 152.997 48.3442 152.592 48.412 152.121H59.8369C59.803 152.559 59.803 152.997 59.7691 153.435C59.7691 153.603 59.7691 153.738 59.7691 153.873C59.4979 162.77 61.193 161.961 63.0237 162.938C65.5324 164.354 65.5324 167.959 65.5324 167.959Z" fill="#FF8F42"/>
<path d="M72.7874 95.7745C69.2616 96.0104 65.7358 96.3474 62.21 96.7855C64.1085 104.806 66.3121 128.295 70.0074 145.818L86.1447 145.212C85.2972 141.977 75.7029 105.716 72.7874 95.7745Z" fill="#23C2A8"/>
<path d="M97.9426 167.521H77.6015C77.6015 167.521 76.4827 161.96 74.8215 153.906C74.7876 153.771 74.7537 153.603 74.7198 153.468C74.6181 153.03 74.5503 152.625 74.4486 152.154H86.2126C86.3482 152.592 86.5177 153.03 86.6533 153.468C86.7211 153.636 86.755 153.771 86.8228 153.906C88.3145 157.95 89.6706 160.174 91.0606 160.713C97.7392 163.207 97.9426 167.521 97.9426 167.521Z" fill="#FF8F42"/>
<path d="M63.0237 162.971C61.6676 162.229 60.3794 162.499 59.9047 159.095H47.4966C46.7847 164.487 46.344 167.958 46.344 167.958H65.5324C65.5324 167.958 65.5324 164.352 63.0237 162.971Z" fill="#484848"/>
<path d="M91.0945 160.714C90.5182 160.478 89.9079 159.973 89.3316 159.13H75.9403C76.9913 164.286 77.6354 167.555 77.6354 167.555H97.9766C97.9427 167.522 97.7393 163.208 91.0945 160.714Z" fill="#484848"/>
<path d="M58.6842 161.016C58.3113 161.555 57.9384 162.061 57.5316 162.6C57.362 162.836 57.7689 163.072 57.9384 162.836C58.3113 162.297 58.6842 161.791 59.091 161.252C59.2266 161.016 58.8537 160.78 58.6842 161.016Z" fill="#0D0F44"/>
<path d="M60.0403 161.724C59.803 162.162 59.5657 162.634 59.3623 163.072C59.2267 163.342 59.6335 163.578 59.7691 163.308L60.4471 161.96C60.5828 161.691 60.1759 161.455 60.0403 161.724Z" fill="#0D0F44"/>
<path d="M88.857 160.141C88.484 160.748 88.1111 161.354 87.7043 161.961C87.5348 162.197 87.9416 162.433 88.1111 162.197C88.484 161.59 88.857 160.984 89.2638 160.377C89.3994 160.108 88.9926 159.905 88.857 160.141Z" fill="#0D0F44"/>
<path d="M90.4503 160.814C90.213 161.185 90.0096 161.556 89.7723 161.96C89.6367 162.196 90.0096 162.432 90.1791 162.196C90.4164 161.825 90.6198 161.455 90.8571 161.05C90.9928 160.814 90.5859 160.578 90.4503 160.814Z" fill="#0D0F44"/>
<path d="M48.2086 153.434H59.7352C59.7352 153.603 59.7352 153.737 59.7352 153.872H48.1408C48.1747 153.737 48.2086 153.603 48.2086 153.434Z" fill="white"/>
<path d="M86.8567 153.907H74.8554C74.8215 153.772 74.7876 153.603 74.7537 153.469H86.6872C86.755 153.603 86.7889 153.738 86.8567 153.907Z" fill="white"/>
<path d="M63.8034 105.345C62.5151 104.738 61.2268 104.131 59.9047 103.525C59.6334 103.39 59.3961 103.794 59.6673 103.929C60.9556 104.536 62.2439 105.142 63.5661 105.749C63.8373 105.85 64.0746 105.479 63.8034 105.345Z" fill="white"/>
<path d="M63.2611 105.48C63.2272 105.177 62.7864 105.311 62.8203 105.615C63.0577 107.198 63.2611 108.782 63.4984 110.366C63.5323 110.67 63.973 110.535 63.9391 110.231C63.7357 108.648 63.4984 107.064 63.2611 105.48Z" fill="white"/>
<path d="M56.8535 94.2234C56.1076 97.863 55.7008 100.458 55.7008 100.458L72.7535 100.323C72.7535 100.323 72.7874 98.3684 72.7196 95.504C67.4309 95.0322 62.1422 94.4256 56.8535 94.2234Z" fill="#1DA58F"/>
<path d="M71.2619 61.6704L73.0926 63.4565L73.8724 61.8726L71.2619 61.6704Z" fill="#D1AEAE"/>
<path d="M68.8886 67.6683C68.6513 67.7357 66.2104 74.105 66.2104 74.105C66.2104 74.105 70.1769 74.3409 70.2447 74.105C70.3125 73.8691 73.1603 68.4097 73.1603 68.4097L68.8886 67.6683Z" fill="#F7E4D8"/>
<path d="M65.6341 63.4558C67.8377 58.5357 76.5166 62.0404 73.8383 68.039C71.6008 73.0602 62.888 69.5892 65.6341 63.4558Z" fill="#F7E4D8"/>
<path d="M65.6342 63.4574C66.5495 61.4017 68.6515 59.346 70.0075 60.1885C71.0924 60.7951 69.6346 63.7944 69.3973 64.9065C68.7193 65.1761 67.9056 65.6142 67.8039 66.423C67.6683 67.4677 68.5837 68.2091 69.6346 68.4113C69.9058 69.1189 69.6685 70.2984 69.6346 70.4332C66.7191 70.1299 63.9052 67.3329 65.6342 63.4574Z" fill="#666666"/>
<path d="M71.3975 62.3115L71.6687 62.5474C71.8721 62.7496 72.1433 62.3789 71.9399 62.1767L71.6687 61.9408C71.4314 61.7386 71.1602 62.1093 71.3975 62.3115Z" fill="#0D0F44"/>
<path d="M69.6346 65.8489C69.8719 65.9163 70.1431 65.95 70.3804 66.0174C70.6516 66.0848 70.6177 66.5229 70.3126 66.4555C70.0753 66.3881 69.8041 66.3544 69.5668 66.287C69.2956 66.2196 69.3295 65.7815 69.6346 65.8489Z" fill="#D1AEAE"/>
<path d="M65.329 65.2087C64.8205 67.7699 54.3109 68.8483 51.7682 70.0615C48.717 71.5443 48.7848 75.0153 50.2426 76.5318C53.7684 80.1714 45.971 83.3392 50.5477 87.1135C54.2431 90.1802 68.5836 89.1692 69.3633 80.0703C69.7701 75.1501 74.2113 70.9714 70.6855 68.0395L68.1428 68.4776L65.329 65.2087Z" fill="#666666"/>
<path d="M130.319 89.1696C128.353 89.7762 126.353 90.3828 124.386 90.9557C124.115 91.0568 124.217 91.4949 124.522 91.3938C126.488 90.7872 128.488 90.1806 130.455 89.6077C130.692 89.5066 130.59 89.0685 130.319 89.1696Z" fill="#23C2A8"/>
<path d="M131.743 94.6963C129.539 94.4941 127.336 94.2582 125.132 94.056C124.827 94.0223 124.827 94.4941 125.132 94.4941C127.336 94.6963 129.539 94.9322 131.743 95.1344C132.048 95.2018 132.048 94.73 131.743 94.6963Z" fill="#23C2A8"/>
<path d="M29.0539 29.5211C27.5283 28.9819 26.0027 28.4764 24.4772 27.9372C24.2059 27.8361 24.0703 28.2742 24.3415 28.3753C25.8671 28.9145 27.3927 29.42 28.9183 29.9592C29.1895 30.0603 29.3251 29.6222 29.0539 29.5211Z" fill="#23C2A8"/>
<path d="M29.8675 26.5549C28.4097 25.1058 26.9858 23.6905 25.528 22.2414C25.3246 22.0392 24.9856 22.3425 25.189 22.5784C26.6468 24.0275 28.0707 25.4428 29.5285 26.8919C29.7658 27.0941 30.1048 26.7571 29.8675 26.5549Z" fill="#23C2A8"/>
</svg>
