<svg width="262" height="225" viewBox="0 0 262 225" fill="none" xmlns="http://www.w3.org/2000/svg">
<path d="M262 0H0V224.794H262V0Z" fill="white"/>
<path d="M150.65 132.074H145.377V137.349H150.65V132.074Z" fill="#DADEEB"/>
<path d="M178.209 132.569H154.811C154.44 132.569 154.44 133.146 154.811 133.146H178.209C178.539 133.105 178.539 132.569 178.209 132.569Z" fill="#DADEEB"/>
<path d="M171.042 136.69H154.811C154.44 136.69 154.44 137.267 154.811 137.267H171.042C171.371 137.267 171.371 136.69 171.042 136.69Z" fill="#DADEEB"/>
<path d="M150.65 147.734H145.377V153.008H150.65V147.734Z" fill="#DADEEB"/>
<path d="M178.209 148.229H154.811C154.44 148.229 154.44 148.805 154.811 148.805H178.209C178.539 148.764 178.539 148.229 178.209 148.229Z" fill="#DADEEB"/>
<path d="M171.042 152.349H154.811C154.44 152.349 154.44 152.926 154.811 152.926H171.042C171.371 152.926 171.371 152.349 171.042 152.349Z" fill="#DADEEB"/>
<path d="M188.096 47.5967L182.082 28.1874C182.041 28.0225 181.752 27.8989 181.629 28.0637C175.82 35.3989 170.012 42.6929 164.162 50.028C163.956 50.3165 164.327 50.7286 164.574 50.4401C170.3 43.2698 175.985 36.0582 181.711 28.8879C183.647 35.1929 185.625 41.4566 187.561 47.7615C187.643 48.0912 188.179 47.9264 188.096 47.5967Z" fill="#0D0F44"/>
<path d="M165.357 119.63C163.668 117.652 161.814 119.218 164.368 122.185C166.922 125.152 166.922 125.152 166.922 125.152L168.487 121.32C169.394 118.847 168.693 115.303 166.51 119.63L166.098 120.908L165.357 119.63Z" fill="#F7B2B2"/>
<path d="M177.262 119.63C175.573 117.652 173.719 119.218 176.273 122.185C178.827 125.152 178.827 125.152 178.827 125.152L180.393 121.32C181.299 118.847 180.599 115.303 178.415 119.63L178.004 120.908L177.262 119.63Z" fill="#F7B2B2"/>
<path d="M212.896 45.4528H143.276V115.096H212.896V45.4528Z" fill="#E4C2AA"/>
<path d="M136.108 52.9954C135.943 52.9954 135.82 52.8718 135.82 52.707V37.5421C135.82 37.3773 135.943 37.2537 136.108 37.2537H150.114C150.279 37.2537 150.403 37.3773 150.403 37.5421C150.403 37.707 150.279 37.8306 150.114 37.8306H136.397V52.7482C136.397 52.8718 136.273 52.9954 136.108 52.9954Z" fill="#0D0F44"/>
<path d="M150.691 123.05H135.531C135.367 123.05 135.243 122.926 135.243 122.761V108.75C135.243 108.586 135.367 108.462 135.531 108.462C135.696 108.462 135.82 108.586 135.82 108.75V122.473H150.732C150.897 122.473 151.021 122.597 151.021 122.761C150.98 122.926 150.856 123.05 150.691 123.05Z" fill="#0D0F44"/>
<path d="M220.022 123.049H206.016C205.851 123.049 205.728 122.925 205.728 122.761C205.728 122.596 205.851 122.472 206.016 122.472H219.734V107.554C219.734 107.39 219.858 107.266 220.022 107.266C220.187 107.266 220.311 107.39 220.311 107.554V122.761C220.311 122.925 220.146 123.049 220.022 123.049Z" fill="#0D0F44"/>
<path d="M220.599 51.8416C220.434 51.8416 220.311 51.7179 220.311 51.5531V37.8306H205.398C205.233 37.8306 205.11 37.707 205.11 37.5421C205.11 37.3773 205.233 37.2537 205.398 37.2537H220.599C220.764 37.2537 220.887 37.3773 220.887 37.5421V51.5531C220.887 51.7179 220.764 51.8416 220.599 51.8416Z" fill="#0D0F44"/>
<path d="M212.36 96.6752C204.657 93.7494 196.253 91.2356 188.632 95.7686C185.46 97.6642 182.453 100.343 178.745 101.043C174.337 101.868 170.547 99.0653 168.158 95.6038C165.727 92.0598 164.739 87.8565 163.379 83.8181C162.102 80.1505 160.413 76.7301 157.571 74.0104C153.657 70.2604 148.467 68.4472 143.317 68.5708V115.096H212.937V96.8813C212.731 96.7988 212.566 96.7164 212.36 96.6752Z" fill="white"/>
<path d="M212.896 80.6053V81.141C195.346 77.6794 176.891 82.2536 162.926 93.5036C162.638 93.7096 162.226 93.3388 162.514 93.0915C166.551 89.836 171 87.075 175.696 84.9322C187.437 79.575 200.496 78.1739 212.896 80.6053Z" fill="white"/>
<path d="M117.488 74.5058C116.046 70.9618 114.604 67.3767 113.163 63.8327C113.08 63.6267 112.874 63.5443 112.709 63.7091C109.414 66.4701 106.118 69.1899 102.823 71.9509C102.534 72.1981 102.946 72.569 103.235 72.3629C106.448 69.7256 109.62 67.047 112.833 64.4096C114.234 67.83 115.593 71.2503 116.994 74.6706C117.076 75.0003 117.653 74.8767 117.488 74.5058Z" fill="#0D0F44"/>
<path d="M102.987 103.639C101.298 101.661 99.4446 103.227 101.999 106.194C104.553 109.161 104.553 109.161 104.553 109.161L106.118 105.329C107.024 102.856 106.324 99.3123 104.141 103.639L103.729 104.917L102.987 103.639Z" fill="#F7B2B2"/>
<path d="M122.926 69.8086H96.3138V96.4295H122.926V69.8086Z" fill="#FF8F42"/>
<path d="M92.73 73.8471C92.5652 73.8471 92.4416 73.7235 92.4416 73.5586V66.1823C92.4416 66.0174 92.5652 65.8938 92.73 65.8938H99.5271C99.6919 65.8938 99.8155 66.0174 99.8155 66.1823C99.8155 66.3471 99.6919 66.4707 99.5271 66.4707H93.0183V73.5586C93.0183 73.7235 92.8947 73.8471 92.73 73.8471Z" fill="#0D0F44"/>
<path d="M99.8155 100.755H92.4416C92.2768 100.755 92.1532 100.631 92.1532 100.466V93.6667C92.1532 93.5019 92.2768 93.3782 92.4416 93.3782C92.6063 93.3782 92.7299 93.5019 92.7299 93.6667V100.178H99.8155C99.9802 100.178 100.104 100.301 100.104 100.466C100.104 100.631 99.9802 100.755 99.8155 100.755Z" fill="#0D0F44"/>
<path d="M126.263 100.755H119.465C119.301 100.755 119.177 100.631 119.177 100.467C119.177 100.302 119.301 100.178 119.465 100.178H125.974V93.1314C125.974 92.9666 126.098 92.843 126.263 92.843C126.427 92.843 126.551 92.9666 126.551 93.1314V100.508C126.551 100.631 126.427 100.755 126.263 100.755Z" fill="#0D0F44"/>
<path d="M126.551 73.3105C126.386 73.3105 126.263 73.1868 126.263 73.022V66.511H119.177C119.012 66.511 118.889 66.3874 118.889 66.2225C118.889 66.0577 119.012 65.9341 119.177 65.9341H126.551C126.716 65.9341 126.839 66.0577 126.839 66.2225V73.022C126.839 73.1868 126.716 73.3105 126.551 73.3105Z" fill="#0D0F44"/>
<path d="M122.926 80.7284V81.3054C121.649 81.4702 120.413 82.2532 119.713 83.6131C119.507 83.9427 119.054 83.6543 119.218 83.3246C121.196 79.9455 118.971 75.4125 114.893 75.4949C110.856 75.5361 108.631 79.9867 110.691 83.3658C110.815 83.6131 110.526 83.9015 110.32 83.7367C108.425 82.5004 105.748 83.6131 105.294 85.8383C105.253 86.1268 104.841 86.0856 104.759 85.8383C103.935 82.9125 101.134 80.7284 98.0441 80.9345C97.4674 80.9757 96.8906 81.0993 96.3551 81.3054V80.7284C96.8906 80.5636 97.4674 80.44 98.0441 80.3988C101.093 80.1927 103.894 82.1708 105.047 84.9317C105.871 83.1598 108.013 82.2532 109.867 82.9125C108.343 79.2861 110.773 74.9592 114.975 74.9592C118.765 74.918 121.154 78.5032 120.454 81.8411C121.113 81.1817 122.02 80.8109 122.926 80.7284Z" fill="white"/>
<path d="M80.0831 100.467C85.4796 111.593 87.9925 118.31 85.2736 123.585L78.0233 104.793L80.0831 100.467Z" fill="#0D0F44"/>
<path d="M82.2664 115.756L85.2736 123.586C86.3859 121.443 86.633 119.012 86.1387 116.168C84.8616 115.962 83.5846 115.839 82.2664 115.756Z" fill="#F7E4D8"/>
<path d="M39.3411 193.764C39.3823 190.179 38.1465 189.808 42.5132 187.13C39.8766 181.113 37.1578 175.097 34.1505 169.245C27.7653 172.542 23.1927 174.52 23.1927 174.52L35.3864 203.572C35.3864 203.572 39.2175 202.459 39.3411 193.764Z" fill="#484848"/>
<path d="M107.684 197.884C104.306 196.771 103.564 197.842 102.287 192.856C95.7371 193.598 89.1871 191.661 82.7195 192.815C83.9553 199.862 84.4909 207.568 84.4909 207.568L115.881 204.601C115.881 204.601 115.964 200.603 107.684 197.884Z" fill="#484848"/>
<path d="M67.7657 109.451C73.4095 130.014 82.0192 201.14 82.0192 201.14L104.676 195.082C95.4076 157.582 88.322 130.055 81.2365 105.082L67.7657 109.451Z" fill="#23C2A8"/>
<path d="M81.2365 109.451C81.0305 133.516 65.0468 178.723 41.2773 191.538L32.2145 169.08C32.2145 169.08 60.4742 150.577 62.3692 121.154C64.2641 91.6896 81.2365 109.451 81.2365 109.451Z" fill="#23C2A8"/>
<path d="M63.1107 104.63C62.74 107.02 62.2457 113.243 62.0809 114.973L81.2365 109.451C81.2365 109.451 81.2777 107.721 81.1953 105.125C75.1809 104.836 69.1252 104.754 63.1107 104.63Z" fill="#3A3A3A"/>
<path d="M78.3529 116.498C78.3941 125.358 77.323 134.177 75.0985 142.748C75.0161 143.119 74.4394 142.954 74.5629 142.583C76.7051 134.177 77.8173 125.564 77.8173 116.91C77.8173 116.663 77.8173 116.416 77.8173 116.21L78.3941 115.756C78.3529 116.045 78.3529 116.292 78.3529 116.498Z" fill="white"/>
<path d="M81.1128 114.314C80.2066 115.056 79.2591 115.756 78.3528 116.498C78.1468 116.663 77.982 116.787 77.7761 116.951C77.7761 116.704 77.7761 116.457 77.7761 116.251L78.3528 115.798L80.7009 113.943C80.9893 113.696 81.4012 114.108 81.1128 114.314Z" fill="white"/>
<path d="M38.4349 187.377C37.6933 186.759 36.9106 186.099 36.1691 185.481C35.8808 185.234 35.4688 185.646 35.7572 185.893C36.4987 186.512 37.2814 187.171 38.0229 187.789C38.3113 187.995 38.7232 187.583 38.4349 187.377Z" fill="white"/>
<path d="M37.9818 190.343C36.7047 189.601 35.4689 188.818 34.1918 188.077C33.8623 187.87 33.5739 188.365 33.9035 188.571C35.1805 189.313 36.4164 190.096 37.6934 190.838C38.023 191.002 38.3113 190.508 37.9818 190.343Z" fill="white"/>
<path d="M102.081 197.473C101.463 198.091 100.845 198.751 100.186 199.369C99.939 199.616 100.31 200.028 100.598 199.781C101.216 199.163 101.834 198.503 102.493 197.885C102.74 197.597 102.328 197.185 102.081 197.473Z" fill="white"/>
<path d="M103.688 198.668L102.575 199.781C102.328 200.028 102.699 200.44 102.987 200.193C103.358 199.822 103.729 199.451 104.1 199.08C104.347 198.833 103.935 198.421 103.688 198.668Z" fill="white"/>
<path d="M45.9324 187.129C42.8428 180.7 39.712 174.272 36.6224 167.885C36.4576 167.555 35.9632 167.843 36.128 168.173C39.2176 174.602 42.3484 181.03 45.438 187.417C45.6028 187.747 46.0972 187.459 45.9324 187.129Z" fill="#0D0F44"/>
<path d="M101.916 189.89C95.6136 191.58 89.2696 193.269 82.9667 194.959C82.596 195.041 82.7608 195.618 83.1315 195.495C89.4343 193.805 95.7784 192.116 102.081 190.426C102.411 190.344 102.287 189.767 101.916 189.89Z" fill="#0D0F44"/>
<path d="M82.4724 109.575L62.4517 110.976H62.3693C62.3693 110.935 62.3693 110.935 62.3693 110.894C62.74 106.443 63.7699 99.1905 65.5825 92.6795C67.3127 86.4158 69.7432 80.8114 72.874 79.0394C73.5331 78.6685 74.1922 78.4625 74.9337 78.4625C75.1397 78.4625 75.3457 78.4625 75.5928 78.5037C76.8699 78.7097 77.8998 80.2344 78.6413 82.5421C81.4837 90.9075 82.4724 109.575 82.4724 109.575Z" fill="#545454"/>
<path d="M69.7019 117.897C67.189 116.002 64.4289 113.57 62.4104 110.974C62.3692 110.933 62.3692 110.933 62.328 110.892C59.9799 107.801 58.7028 104.381 60.0623 101.167C61.3805 98.076 63.399 95.1914 65.5412 92.6776C70.2374 87.1557 75.5516 83.4469 75.5516 83.4469L75.4692 82.6639L74.9336 78.4606V78.337C74.3569 78.4194 73.6154 78.543 72.8327 78.7903C64.4701 81.2216 45.5616 92.4716 47.9921 110.027C49.4751 120.864 57.467 126.881 63.399 129.889C65.3764 125.81 67.4773 121.812 69.7019 117.897Z" fill="#8D8D8D"/>
<path d="M58.9912 127.253C60.4742 128.283 61.9984 129.149 63.3579 129.849C65.3764 125.811 67.5186 121.814 69.7431 117.858C68.7132 117.075 67.6422 116.209 66.5711 115.261C63.811 119.135 61.4217 123.215 58.9912 127.253Z" fill="#F7E4D8"/>
<path d="M74.3157 80.5641C75.6752 80.6465 77.2406 80.7289 77.2818 80.5641C77.3642 80.2756 81.1541 73.5998 81.1541 73.5998L75.8811 72.4872C75.6752 72.5696 73.9862 76.4844 72.9975 78.7509C73.4094 79.3278 73.8626 79.946 74.3157 80.5641Z" fill="#F7E4D8"/>
<path d="M80.7422 74.9181C77.323 76.8137 73.8626 74.3824 72.9151 71.1681C72.7504 70.5912 72.668 69.9318 72.668 69.3137C72.7092 67.4181 73.6978 65.5225 76.046 64.2038C77.8585 63.2148 79.6299 63.4621 81.0717 64.3687C81.6485 64.7395 82.1428 65.1928 82.5959 65.7698C84.6145 68.3659 84.8205 72.6516 80.7422 74.9181Z" fill="#F7E4D8"/>
<path d="M80.2478 62.1024C79.9182 62.1848 79.6299 62.3497 79.3415 62.5969C79.0943 62.5969 78.806 62.6793 78.6 62.8442C78.3528 63.0502 78.2292 63.3387 78.188 63.5859C77.4877 63.6271 76.7874 63.8332 76.0871 64.2041C71.1849 66.9238 72.256 72.1986 75.2632 74.465C75.3868 74.1354 75.5104 73.8057 75.6751 73.5585C73.0387 72.6107 73.3682 69.2315 76.1695 69.0667C76.911 69.0255 77.4877 68.0365 77.9409 67.6244C78.8471 67.1711 79.6711 66.5942 80.4538 65.9348C81.2365 65.2343 82.3487 64.3277 82.1427 63.1326C81.8956 62.3085 81.1129 61.8552 80.2478 62.1024Z" fill="#666666"/>
<path d="M83.0903 67.0046L83.7494 70.0952L85.3972 69.3535L83.0903 67.0046Z" fill="#D1AEAE"/>
<path d="M81.566 67.0063L81.6483 67.4184C81.7307 67.7892 82.2663 67.5832 82.1839 67.2535L82.1015 66.8414C82.0191 66.4706 81.4836 66.6766 81.566 67.0063Z" fill="#0D0F44"/>
<path d="M76.2931 71.5392C76.0459 71.3332 75.7987 71.1683 75.5516 70.9623C75.2632 70.7562 74.8513 71.1683 75.1396 71.3744C75.3868 71.5804 75.634 71.7453 75.8811 71.9513C76.1695 72.1573 76.5814 71.7865 76.2931 71.5392Z" fill="#D1AEAE"/>
<path d="M75.5928 78.5018C75.3868 78.4606 75.1808 78.4606 74.9336 78.4606V78.337C74.3569 78.4194 73.6154 78.543 72.8327 78.7903C72.8739 78.8727 72.8739 78.9551 72.9151 79.0375C73.4094 80.521 74.1509 82.0046 75.5104 82.6639C75.8811 82.8287 76.2519 82.9524 76.705 83.0348C77.5289 83.1172 78.1469 82.9524 78.6824 82.5403C77.8585 80.2326 76.8698 78.7079 75.5928 78.5018Z" fill="#F7E4D8"/>
<path d="M118.271 37.0879C118.188 37.0879 118.106 37.0467 118.024 36.9643C113.739 30.7418 109.002 24.3132 103.152 16.6484C103.07 16.5248 103.07 16.3599 103.193 16.2775C104.1 15.4533 105.171 14.7116 106.324 14.1346C109.743 12.4451 113.698 12.1154 117.159 13.3105C120.166 14.3407 122.596 16.5248 123.956 19.3682C123.997 19.4094 123.997 19.4506 123.997 19.4506C127.54 26.9918 125.562 33.2555 118.394 37.0055C118.353 37.0879 118.312 37.0879 118.271 37.0879ZM103.811 16.5248C109.496 23.9835 114.151 30.3297 118.394 36.4286C126.922 31.772 125.933 24.7665 123.544 19.6978C123.503 19.6566 123.503 19.6154 123.503 19.6154C122.184 16.8956 119.96 14.8764 117.035 13.8874C113.739 12.7335 109.949 13.022 106.654 14.6704C105.583 15.1649 104.635 15.783 103.811 16.5248Z" fill="#DADEEB"/>
<path d="M151.227 22.8306H115.016V27.3635H151.227V22.8306Z" fill="#C0CFFF"/>
<path d="M235.841 110.48C235.8 110.109 235.265 110.274 235.306 110.645C237.777 127.994 233.74 146.002 224.348 160.755C214.914 175.59 200.043 186.387 183.194 191.249C173.802 193.969 163.874 194.835 154.152 193.681C153.781 193.639 153.781 194.216 154.152 194.258C171.742 196.359 189.868 191.826 204.533 181.936C219.198 172.046 229.621 156.881 234.111 139.821C236.624 130.26 237.242 120.247 235.841 110.48Z" fill="#DADEEB"/>
<path d="M75.8399 195.041C70.567 196.69 64.9232 196.401 59.8563 194.176C59.5267 194.052 59.2383 194.506 59.5679 194.671C64.7997 196.937 70.567 197.267 76.0047 195.577C76.3343 195.495 76.1695 194.959 75.8399 195.041Z" fill="#DADEEB"/>
<path d="M74.2745 191.085C71.0201 192.774 67.1478 192.651 63.9758 190.755C63.6462 190.549 63.3578 191.044 63.6874 191.25C67.0242 193.228 71.1025 193.351 74.5629 191.579C74.8924 191.373 74.6041 190.92 74.2745 191.085Z" fill="#DADEEB"/>
</svg>
