<svg width="18" height="19" viewBox="0 0 18 19" fill="none" xmlns="http://www.w3.org/2000/svg">
<path d="M17.6655 4.55385C17.6655 4.48232 17.6504 4.4108 17.6184 4.34304C17.5544 4.20752 17.4321 4.11529 17.2965 4.08705L9.19729 0.145653C9.06553 0.0816573 8.91119 0.0816573 8.77943 0.145653L0.60112 4.1247C0.443012 4.19999 0.339489 4.35998 0.330078 4.54067V14.5429C0.330078 14.7254 0.433601 14.8948 0.60112 14.9739L8.77943 18.9511C8.7832 18.9511 8.7832 18.9511 8.78696 18.9548C8.79825 18.9586 8.81143 18.9624 8.82272 18.9699C8.82649 18.9699 8.83025 18.9736 8.83778 18.9736C8.84907 18.9774 8.86225 18.9812 8.87354 18.9849C8.87731 18.9849 8.88107 18.9887 8.88484 18.9887C8.89613 18.9925 8.91307 18.9925 8.92436 18.9962H8.93566C8.95071 18.9962 8.97142 19 8.98648 19C9.00153 19 9.02224 19 9.0373 18.9962H9.04859C9.05988 18.9962 9.07682 18.9925 9.08812 18.9887C9.09188 18.9887 9.09565 18.9849 9.09941 18.9849C9.1107 18.9812 9.12388 18.9774 9.13517 18.9736C9.13894 18.9736 9.1427 18.9699 9.15211 18.9699C9.16341 18.9661 9.17658 18.9624 9.18788 18.9548C9.19164 18.9548 9.19164 18.9548 9.1954 18.9511L17.3982 14.9626C17.5619 14.8836 17.6692 14.716 17.6692 14.5316V4.56702C17.6655 4.56326 17.6655 4.55949 17.6655 4.55385ZM8.98648 1.10748L16.0787 4.55949L13.4662 5.83188L6.37393 2.37987L8.98648 1.10748ZM8.50839 17.7521L1.28437 14.2379V5.32933L8.50839 8.84346V17.7521ZM8.98648 8.00963L1.89233 4.55949L5.28036 2.91254L12.3745 6.36268L8.98648 8.00963ZM16.7112 14.221L9.46268 17.7521V8.84346L12.8545 7.19274V9.52295C12.8545 9.78646 13.069 10.001 13.3326 10.001C13.5961 10.001 13.8088 9.78646 13.8088 9.52295V6.72595L16.7112 5.31427V14.221Z" fill="#23C2A8"/>
</svg>
