<svg width="20" height="19" viewBox="0 0 20 19" fill="none" xmlns="http://www.w3.org/2000/svg">
<path d="M14.4048 10.4367C14.1799 10.2079 13.8138 10.186 13.5849 10.4108L10.7214 13.2107C10.4926 13.4355 10.4866 13.8196 10.7115 14.0484C10.9363 14.2773 11.3204 14.2812 11.5492 14.0564L14.3928 11.2725C14.6257 11.0496 14.6296 10.6656 14.4048 10.4367Z" fill="#23C2A8"/>
<path d="M18.8624 10.3894L11.6828 3.158C11.5754 3.04259 11.4241 2.97692 11.2669 2.97891H6.70404C6.52096 2.60878 6.28814 2.26453 6.00955 1.96007C4.85938 0.678562 2.97493 0 0.594986 0C0.266649 0 0 0.268639 0 0.598965C0 0.929292 0.266649 1.19793 0.594986 1.19793C2.63863 1.19793 4.2047 1.7372 5.13598 2.77594C5.19966 2.84558 5.25935 2.91921 5.31507 2.99483H4.1052C3.77687 2.99483 3.51022 3.26347 3.51022 3.59379V10.8072C3.50624 10.9664 3.5719 11.1197 3.68931 11.2271L10.8689 18.4605C11.0878 18.6913 11.452 18.7013 11.6828 18.4804C11.6888 18.4744 11.6967 18.4664 11.7027 18.4605L18.8823 11.247C19.1052 11.0042 19.0953 10.6262 18.8624 10.3894ZM11.2848 17.1849L4.68029 10.5505V4.17684H5.89016C5.95583 4.41165 6.00159 4.65243 6.02945 4.8952C5.3887 5.18772 5.10613 5.94787 5.39467 6.5926C5.6852 7.23733 6.43938 7.52388 7.08013 7.23136C7.72088 6.93885 8.00345 6.1787 7.71491 5.53396C7.60746 5.3091 7.4423 5.11608 7.23932 4.9748C7.22142 4.70616 7.18162 4.43752 7.11993 4.17485H11.0281L17.6128 10.8092L11.2848 17.1849Z" fill="#23C2A8"/>
</svg>
