<svg width="15" height="14" viewBox="0 0 15 14" fill="none" xmlns="http://www.w3.org/2000/svg">
<path d="M7.05309 0.887098C7.16204 0.660311 7.48497 0.660311 7.59392 0.887097L9.4734 4.79933C9.51713 4.89036 9.60373 4.95328 9.70382 4.96674L14.0054 5.54529C14.2547 5.57883 14.3545 5.88595 14.1725 6.05965L11.0325 9.05609C10.9595 9.12581 10.9264 9.22762 10.9445 9.32697L11.7235 13.5968C11.7687 13.8443 11.5074 14.0341 11.286 13.9147L7.46591 11.8543C7.37703 11.8064 7.26998 11.8064 7.18109 11.8543L3.36101 13.9147C3.13956 14.0341 2.87831 13.8443 2.92347 13.5968L3.70249 9.32697C3.72062 9.22762 3.68754 9.12581 3.61448 9.05609L0.474514 6.05965C0.292495 5.88595 0.392284 5.57883 0.641639 5.54529L4.94318 4.96674C5.04328 4.95328 5.12988 4.89036 5.17361 4.79933L7.05309 0.887098Z" fill="#FFA24D"/>
</svg>
