<svg width="18" height="18" viewBox="0 0 18 18" fill="none" xmlns="http://www.w3.org/2000/svg">
<g clip-path="url(#clip0_1_1803)">
<path d="M17.0924 17.0969V17.0962H17.0967V10.8261C17.0967 7.75864 16.4363 5.39575 12.8503 5.39575C11.1264 5.39575 9.96955 6.34176 9.49725 7.23862H9.44739V5.68212H6.0473V17.0962H9.58772V11.4444C9.58772 9.95627 9.86982 8.51731 11.7127 8.51731C13.5285 8.51731 13.5556 10.2156 13.5556 11.5398V17.0969H17.0924Z" fill="#0077B5"/>
<path d="M0.282043 5.6825H3.82674V17.0966H0.282043V5.6825Z" fill="#0077B5"/>
<path d="M2.05302 0C0.919655 0 0 0.919654 0 2.05302C0 3.18638 0.919655 4.12527 2.05302 4.12527C3.18638 4.12527 4.10603 3.18638 4.10603 2.05302C4.10532 0.919654 3.18567 0 2.05302 0V0Z" fill="#0077B5"/>
</g>
<defs>
<clipPath id="clip0_1_1803">
<rect width="17.0966" height="17.0966" fill="white"/>
</clipPath>
</defs>
</svg>
