<svg width="19" height="24" viewBox="0 0 19 24" fill="none" xmlns="http://www.w3.org/2000/svg">
<path d="M9.37219 0.711914C3.25383 0.711914 0 4.63269 0 8.90787C0 10.8906 1.10786 13.363 2.88128 14.1472C3.15057 14.2686 3.29708 14.217 3.35708 13.9672C3.4101 13.7774 3.64311 12.8635 3.75613 12.4324C3.79101 12.2943 3.77288 12.1743 3.66125 12.0445C3.07244 11.3636 2.60501 10.1232 2.60501 8.9595C2.60501 5.97775 4.97562 3.08252 9.00942 3.08252C12.4977 3.08252 14.938 5.34848 14.938 8.58975C14.938 12.2524 13 14.7862 10.4815 14.7862C9.08755 14.7862 8.04945 13.6923 8.37874 12.3389C8.7764 10.7273 9.55637 8.99438 9.55637 7.8321C9.55637 6.78982 8.96756 5.92752 7.76481 5.92752C6.3458 5.92752 5.19468 7.33259 5.19468 9.21902C5.19468 10.4176 5.61885 11.2269 5.61885 11.2269C5.61885 11.2269 4.21518 16.8973 3.95426 17.9564C3.51335 19.7493 4.01426 22.6529 4.05752 22.9027C4.08403 23.0408 4.2389 23.0841 4.32541 22.971C4.46355 22.7897 6.16022 20.3688 6.63602 18.6191C6.80904 17.9815 7.51924 15.396 7.51924 15.396C7.98666 16.2401 9.33591 16.9476 10.7731 16.9476C15.0482 16.9476 18.1374 13.19 18.1374 8.52696C18.1221 4.05643 14.2962 0.711914 9.37219 0.711914Z" fill="#D82C1F"/>
</svg>
