<svg width="14" height="14" viewBox="0 0 14 14" fill="none" xmlns="http://www.w3.org/2000/svg">
<circle cx="7" cy="7" r="7" fill="#FD8516"/>
<path d="M3.85606 3.24257L3.41968 2.74065C3.83447 2.39102 4.29412 2.10573 4.78898 1.89086L5.04182 2.50656C4.61381 2.69353 4.21568 2.94073 3.85606 3.24257ZM11.677 8.4957C11.8176 8.04928 11.8933 7.58479 11.9024 7.11232L12.4702 7.09813L12.5659 7.10013C12.5569 7.65623 12.4694 8.19342 12.3056 8.70896L11.677 8.4957ZM10.7263 2.86802L10.2731 3.35462C9.924 3.04055 9.53451 2.77962 9.11283 2.57741L9.3871 1.971C9.87465 2.20313 10.3242 2.50446 10.7263 2.86802ZM2.32007 5.54411L1.68258 5.35828C1.84276 4.84105 2.0769 4.35179 2.37938 3.90139L2.92315 4.28287C2.66206 4.67337 2.45968 5.09682 2.32007 5.54411ZM12.3715 5.54403L11.7284 5.70755C11.6043 5.25568 11.4166 4.82548 11.1694 4.4262L11.7261 4.06384C12.0127 4.52453 12.2295 5.02155 12.3715 5.54403ZM7.78116 2.16095C7.32404 2.08765 6.84791 2.07944 6.38606 2.13701L6.29042 1.47811C6.82297 1.4102 7.37225 1.41976 7.89987 1.50571L7.78116 2.16095ZM1.63304 8.50095C1.50045 8.01889 1.43334 7.51942 1.43334 7.01477C1.43334 6.97603 1.43371 6.93745 1.43447 6.89902L2.09772 6.92397C2.09715 6.95417 2.09685 6.98446 2.09685 7.01477C2.09685 7.45534 2.15504 7.89163 2.26953 8.31247L1.63304 8.50095ZM7.60376 11.8938C8.06873 11.8366 8.52057 11.7134 8.94899 11.5269L9.22556 12.1323C8.73075 12.349 8.20876 12.4913 7.67117 12.5561L7.60376 11.8938ZM11.6296 10.1153C11.3293 10.5654 10.967 10.9679 10.5505 11.3139L10.1362 10.7938C10.4963 10.4933 10.8103 10.1445 11.0716 9.7551L11.6296 10.1153ZM6.20876 11.8669L6.11561 12.5263C5.58156 12.4407 5.06538 12.278 4.57837 12.0418L4.87836 11.4478C5.30018 11.651 5.74688 11.7918 6.20876 11.8669ZM3.28536 11.1719C2.88266 10.8101 2.53613 10.3938 2.25366 9.93261L2.82535 9.59452C3.07119 9.99338 3.37136 10.3539 3.71974 10.6684L3.28536 11.1719Z" fill="white" stroke="#FD8516" stroke-width="0.2"/>
<path d="M9.33339 7.54545H8.50883V4H6.42111L4.00006 7.96364V8.77273H6.94743V10H8.50883V8.77273H9.33339V7.54545ZM6.48252 6.16364C6.66673 5.85455 6.84217 5.50909 6.9562 5.18182H6.97375L6.94743 6.17273V7.54545H5.64041L6.48252 6.16364Z" fill="white"/>
</svg>
