<svg width="178" height="37" viewBox="0 0 178 37" fill="none" xmlns="http://www.w3.org/2000/svg">
<path d="M0.485229 0.78186H8.36307V26.7822H7.63648V1.52589H0.485229V0.78186Z" fill="#181818"/>
<path d="M17.1578 25.7035C18.33 25.9763 19.4522 26.1123 20.5235 26.1123C23.5832 26.1123 25.9664 24.9531 27.6746 22.6346C29.3821 20.3161 30.237 17.0864 30.237 12.9446C30.237 12.3254 30.1854 11.3453 30.0845 10.0061C29.6509 12.2134 28.6248 13.943 27.0062 15.1951C25.3867 16.4479 23.341 17.0736 20.8682 17.0736C18.242 17.0736 16.1704 16.3607 14.6535 14.9351C13.1366 13.5094 12.3777 11.5317 12.3777 9.00203C12.3777 6.42352 13.1616 4.39623 14.7294 2.92017C16.2972 1.44491 18.3938 0.707275 21.02 0.707275C24.1806 0.707275 26.6348 1.76732 28.3818 3.88741C30.128 6.0075 31.0016 9.06443 31.0016 13.0566C31.0016 15.8095 30.581 18.2272 29.7397 20.3097C28.8985 22.393 27.694 24.0051 26.1262 25.1451C24.5584 26.286 22.7161 26.8564 20.6002 26.8564C19.5038 26.8564 18.3373 26.714 17.1013 26.4284C15.8645 26.1435 14.6858 25.7403 13.5636 25.2195L13.9463 24.5499C14.9143 25.0475 15.9856 25.4315 17.1578 25.7035ZM17.0052 2.38175C15.7813 3.00177 14.8311 3.88821 14.1562 5.04106C13.4805 6.19391 13.143 7.53956 13.143 9.07723C13.143 11.3093 13.8438 13.0758 15.2461 14.3775C16.6476 15.6791 18.5221 16.3303 20.8674 16.3303C22.5749 16.3303 24.0797 15.9767 25.3803 15.2703C26.6808 14.5639 27.6811 13.6334 28.3826 12.4806C29.0834 11.3277 29.4346 10.0941 29.4346 8.77962C29.4346 7.71397 29.1343 6.60992 28.536 5.46908C27.937 4.32903 27.0191 3.37379 25.7823 2.60496C24.5455 1.83692 23.0221 1.45211 21.2121 1.45211C19.6306 1.45131 18.2291 1.76172 17.0052 2.38175Z" fill="#181818"/>
<path d="M37.0057 25.7035C38.1779 25.9763 39.3001 26.1123 40.3714 26.1123C43.4311 26.1123 45.8143 24.9531 47.5226 22.6346C49.23 20.3161 50.085 17.0864 50.085 12.9446C50.085 12.3254 50.0333 11.3453 49.9324 10.0061C49.4989 12.2134 48.4728 13.943 46.8541 15.1951C45.2346 16.4479 43.1889 17.0736 40.7161 17.0736C38.0899 17.0736 36.0183 16.3607 34.5014 14.9351C32.9845 13.5094 32.2256 11.5317 32.2256 9.00203C32.2256 6.42352 33.0095 4.39623 34.5773 2.92017C36.1451 1.44491 38.2417 0.707275 40.8679 0.707275C44.0285 0.707275 46.4828 1.76732 48.2298 3.88741C49.976 6.0075 50.8495 9.06443 50.8495 13.0566C50.8495 15.8095 50.4289 18.2272 49.5877 20.3097C48.7465 22.393 47.542 24.0051 45.9742 25.1451C44.4064 26.286 42.564 26.8564 40.4481 26.8564C39.3517 26.8564 38.1852 26.714 36.9492 26.4284C35.7124 26.1435 34.5337 25.7403 33.4115 25.2195L33.7942 24.5499C34.7622 25.0475 35.8327 25.4315 37.0057 25.7035ZM36.8531 2.38175C35.6292 3.00177 34.679 3.88821 34.0041 5.04106C33.3284 6.19391 32.9909 7.53956 32.9909 9.07723C32.9909 11.3093 33.6917 13.0758 35.094 14.3775C36.4955 15.6791 38.37 16.3303 40.7153 16.3303C42.4228 16.3303 43.9276 15.9767 45.2282 15.2703C46.5288 14.5639 47.529 13.6334 48.2306 12.4806C48.9313 11.3277 49.2825 10.0941 49.2825 8.77962C49.2825 7.71397 48.9822 6.60992 48.384 5.46908C47.7849 4.32903 46.867 3.37379 45.6302 2.60496C44.3934 1.83692 42.87 1.45211 41.06 1.45211C39.4785 1.45131 38.0762 1.76172 36.8531 2.38175Z" fill="#181818"/>
<path d="M56.8534 25.7035C58.0256 25.9763 59.1478 26.1123 60.2191 26.1123C63.2788 26.1123 65.662 24.9531 67.3703 22.6346C69.0778 20.3161 69.9328 17.0864 69.9328 12.9446C69.9328 12.3254 69.8811 11.3453 69.7802 10.0061C69.3466 12.2134 68.3205 13.943 66.7019 15.1951C65.0824 16.4479 63.0366 17.0736 60.5638 17.0736C57.9376 17.0736 55.866 16.3607 54.3491 14.9351C52.8321 13.5094 52.0732 11.5317 52.0732 9.00203C52.0732 6.42352 52.8572 4.39623 54.425 2.92017C55.9928 1.44491 58.0894 0.707275 60.7156 0.707275C63.8762 0.707275 66.3305 1.76732 68.0775 3.88741C69.8238 6.0075 70.6973 9.06443 70.6973 13.0566C70.6973 15.8095 70.2767 18.2272 69.4354 20.3097C68.5942 22.393 67.3897 24.0051 65.8219 25.1451C64.2541 26.286 62.4118 26.8564 60.2958 26.8564C59.1994 26.8564 58.0329 26.714 56.7969 26.4284C55.5601 26.1435 54.3814 25.7403 53.2592 25.2195L53.6419 24.5499C54.609 25.0475 55.6804 25.4315 56.8534 25.7035ZM56.7 2.38175C55.4761 3.00177 54.5259 3.88821 53.851 5.04106C53.1752 6.19391 52.8378 7.53956 52.8378 9.07723C52.8378 11.3093 53.5385 13.0758 54.9408 14.3775C56.3423 15.6791 58.2169 16.3303 60.5622 16.3303C62.2697 16.3303 63.7745 15.9767 65.0751 15.2703C66.3757 14.5639 67.376 13.6334 68.0775 12.4806C68.7783 11.3277 69.1295 10.0941 69.1295 8.77962C69.1295 7.71397 68.83 6.60992 68.2309 5.46908C67.6319 4.32903 66.714 3.37379 65.4772 2.60496C64.2404 1.83692 62.7169 1.45211 60.9069 1.45211C59.3262 1.45131 57.9239 1.76172 56.7 2.38175Z" fill="#181818"/>
<path d="M112.954 22.2208V27.1306H92.7232V23.2249L103.049 13.7397C104.144 12.7228 104.885 11.8492 105.267 11.1171C105.65 10.3859 105.84 9.66028 105.84 8.94105C105.84 7.89941 105.477 7.10017 104.751 6.54175C104.024 5.98413 102.959 5.70491 101.558 5.70491C100.385 5.70491 99.3262 5.92252 98.3832 6.35614C97.4395 6.79056 96.6491 7.44099 96.0122 8.30902L91.4993 5.4817C92.5447 3.96964 93.985 2.78479 95.8208 1.92956C97.6567 1.07432 99.7597 0.646301 102.131 0.646301C104.119 0.646301 105.86 0.962315 107.351 1.59514C108.842 2.22717 110.002 3.12001 110.831 4.27365C111.66 5.4265 112.074 6.78416 112.074 8.34663C112.074 9.76028 111.768 11.0867 111.157 12.3268C110.545 13.5668 109.359 14.9805 107.6 16.567L101.443 22.2208H112.954Z" fill="#181818"/>
<path d="M119.658 25.9772C117.924 24.9116 116.567 23.3675 115.586 21.3466C114.604 19.3257 114.113 16.9144 114.113 14.1119C114.113 11.3102 114.604 8.89889 115.586 6.87721C116.566 4.85632 117.924 3.31306 119.658 2.24581C121.392 1.18017 123.368 0.646545 125.586 0.646545C127.803 0.646545 129.779 1.18017 131.513 2.24581C133.246 3.31226 134.604 4.85632 135.586 6.87721C136.567 8.89889 137.058 11.3102 137.058 14.1119C137.058 16.9144 136.568 19.3257 135.586 21.3466C134.604 23.3683 133.246 24.9116 131.513 25.9772C129.779 27.0437 127.803 27.5765 125.586 27.5765C123.368 27.5765 121.392 27.0437 119.658 25.9772ZM129.429 20.4346C130.359 19.0713 130.825 16.9632 130.825 14.1111C130.825 11.2598 130.359 9.1517 129.429 7.78764C128.499 6.42439 127.217 5.74196 125.586 5.74196C123.979 5.74196 122.711 6.42439 121.781 7.78764C120.85 9.1517 120.385 11.2598 120.385 14.1111C120.385 16.9632 120.85 19.0713 121.781 20.4346C122.711 21.7986 123.98 22.4803 125.586 22.4803C127.217 22.4811 128.499 21.7986 129.429 20.4346Z" fill="#181818"/>
<path d="M156.481 26.3867V27.1307H138.125L138.163 26.0523L149.062 14.9302C150.463 13.4926 151.572 12.0845 152.389 10.7084C153.204 9.33238 153.613 8.13633 153.613 7.11869C153.613 5.45782 152.975 4.15537 151.7 3.21293C150.424 2.27049 148.679 1.79927 146.46 1.79927C145.084 1.79927 143.713 2.07848 142.35 2.6361C140.985 3.19373 139.781 3.96976 138.735 4.961L138.2 4.44018C139.296 3.37453 140.577 2.5433 142.044 1.94807C143.51 1.35285 144.981 1.05524 146.46 1.05524C148.908 1.05524 150.839 1.59446 152.255 2.6737C153.67 3.75215 154.377 5.23461 154.377 7.11869C154.377 8.23474 153.95 9.52439 153.096 10.9869C152.242 12.4501 151.075 13.9382 149.597 15.4502L138.927 26.3859H156.481V26.3867Z" fill="#181818"/>
<path d="M175.105 4.43957C176.94 6.69646 177.858 9.9206 177.858 14.1104C177.858 18.3266 176.94 21.5627 175.105 23.8188C173.269 26.0757 170.656 27.2037 167.265 27.2037C163.874 27.2037 161.266 26.0693 159.444 23.8004C157.621 21.5315 156.71 18.3018 156.71 14.1104C156.71 9.9198 157.621 6.69566 159.444 4.43957C161.266 2.18347 163.874 1.05463 167.265 1.05463C170.656 1.05463 173.27 2.18347 175.105 4.43957ZM159.999 4.97879C158.317 7.09888 157.475 10.143 157.475 14.1104C157.475 18.0785 158.317 21.1283 159.999 23.2612C161.681 25.3941 164.103 26.4597 167.265 26.4597C170.425 26.4597 172.854 25.3941 174.55 23.2612C176.245 21.1291 177.093 18.0785 177.093 14.1104C177.093 10.143 176.245 7.09888 174.55 4.97879C172.854 2.8587 170.425 1.79866 167.265 1.79866C164.103 1.79866 161.681 2.8587 159.999 4.97879Z" fill="#181818"/>
<path d="M77.3739 15.2524H83.1227V15.9964H77.3739V15.2524Z" fill="#181818"/>
<path d="M97.5597 31.1217H97.04L95.3543 33.8571L93.6686 31.1217H93.1138L95.0804 34.3095V35.9939H95.5931V34.3095L97.5597 31.1217Z" fill="#6F6F6F"/>
<path d="M98.7827 35.5485V33.7388H101.325V33.3003H98.7827V31.5672H101.634V31.1217H98.2629V35.9939H101.74V35.5485H98.7827Z" fill="#6F6F6F"/>
<path d="M106.635 35.9939H107.183L104.935 31.1217H104.422L102.175 35.9939H102.716L103.305 34.6924H106.045L106.635 35.9939ZM103.495 34.2747L104.675 31.6577L105.855 34.2747H103.495Z" fill="#6F6F6F"/>
<path d="M111.922 35.9939L110.721 34.3235C111.437 34.0938 111.845 33.5578 111.845 32.7922C111.845 31.7481 111.086 31.1217 109.836 31.1217H107.996V35.9939H108.516V34.4487H109.836C109.976 34.4487 110.103 34.4418 110.229 34.4279L111.353 35.9939H111.922ZM109.822 34.0102H108.516V31.5672H109.822C110.805 31.5672 111.325 32.0126 111.325 32.7922C111.325 33.5578 110.805 34.0102 109.822 34.0102Z" fill="#6F6F6F"/>
<path d="M114.427 36.0357C115.684 36.0357 116.26 35.4232 116.26 34.7063C116.26 32.9314 113.233 33.7388 113.233 32.4024C113.233 31.9152 113.633 31.5185 114.532 31.5185C114.968 31.5185 115.46 31.6507 115.881 31.9222L116.057 31.5115C115.663 31.24 115.087 31.08 114.532 31.08C113.282 31.08 112.72 31.6994 112.72 32.4163C112.72 34.2191 115.748 33.3977 115.748 34.7341C115.748 35.2144 115.347 35.5972 114.427 35.5972C113.781 35.5972 113.156 35.3466 112.805 35.0056L112.601 35.4023C112.966 35.7782 113.69 36.0357 114.427 36.0357Z" fill="#6F6F6F"/>
<path d="M121.38 36.0357C122.855 36.0357 123.958 34.9847 123.958 33.5578C123.958 32.131 122.855 31.08 121.38 31.08C119.891 31.08 118.795 32.1379 118.795 33.5578C118.795 34.9777 119.891 36.0357 121.38 36.0357ZM121.38 35.5763C120.193 35.5763 119.308 34.7202 119.308 33.5578C119.308 32.3955 120.193 31.5393 121.38 31.5393C122.56 31.5393 123.438 32.3955 123.438 33.5578C123.438 34.7202 122.56 35.5763 121.38 35.5763Z" fill="#6F6F6F"/>
<path d="M128.494 31.5672V31.1217H125.123V35.9939H125.643V33.9267H128.185V33.4813H125.643V31.5672H128.494Z" fill="#6F6F6F"/>
<path d="M131.925 35.5485V33.7388H134.468V33.3003H131.925V31.5672H134.777V31.1217H131.406V35.9939H134.882V35.5485H131.925Z" fill="#6F6F6F"/>
<path d="M139.73 35.9939L137.854 33.4743L139.596 31.1217H139.034L137.559 33.1124L136.077 31.1217H135.48L137.229 33.4882L135.361 35.9939H135.958L137.538 33.8502L139.126 35.9939H139.73Z" fill="#6F6F6F"/>
<path d="M142.608 36.0357C143.332 36.0357 143.978 35.7921 144.413 35.3188L144.083 34.9916C143.683 35.4023 143.191 35.5763 142.629 35.5763C141.442 35.5763 140.55 34.7132 140.55 33.5578C140.55 32.4024 141.442 31.5393 142.629 31.5393C143.191 31.5393 143.683 31.7133 144.083 32.117L144.413 31.7899C143.978 31.3166 143.332 31.08 142.615 31.08C141.133 31.08 140.038 32.131 140.038 33.5578C140.038 34.9847 141.133 36.0357 142.608 36.0357Z" fill="#6F6F6F"/>
<path d="M146.041 35.5485V33.7388H148.584V33.3003H146.041V31.5672H148.893V31.1217H145.521V35.9939H148.998V35.5485H146.041Z" fill="#6F6F6F"/>
<path d="M150.22 35.9939H153.493V35.5485H150.74V31.1217H150.22V35.9939Z" fill="#6F6F6F"/>
<path d="M154.356 35.9939H157.629V35.5485H154.876V31.1217H154.356V35.9939Z" fill="#6F6F6F"/>
<path d="M159.012 35.5485V33.7388H161.554V33.3003H159.012V31.5672H161.863V31.1217H158.492V35.9939H161.969V35.5485H159.012Z" fill="#6F6F6F"/>
<path d="M166.786 31.1217V35.0752L163.619 31.1217H163.19V35.9939H163.71V32.0405L166.871 35.9939H167.299V31.1217H166.786Z" fill="#6F6F6F"/>
<path d="M171.039 36.0357C171.762 36.0357 172.409 35.7921 172.844 35.3188L172.514 34.9916C172.114 35.4023 171.622 35.5763 171.06 35.5763C169.873 35.5763 168.981 34.7132 168.981 33.5578C168.981 32.4024 169.873 31.5393 171.06 31.5393C171.622 31.5393 172.114 31.7133 172.514 32.117L172.844 31.7899C172.409 31.3166 171.762 31.08 171.046 31.08C169.564 31.08 168.468 32.131 168.468 33.5578C168.468 34.9847 169.564 36.0357 171.039 36.0357Z" fill="#6F6F6F"/>
<path d="M174.472 35.5485V33.7388H177.014V33.3003H174.472V31.5672H177.323V31.1217H173.952V35.9939H177.429V35.5485H174.472Z" fill="#6F6F6F"/>
</svg>
